<svg xmlns="http://www.w3.org/2000/svg" xmlns:xlink="http://www.w3.org/1999/xlink" version="1.1" width="256" height="256" viewBox="0 0 256 256" xml:space="preserve">

<defs>
</defs>
<g style="stroke: none; stroke-width: 0; stroke-dasharray: none; stroke-linecap: butt; stroke-linejoin: miter; stroke-miterlimit: 10; fill: none; fill-rule: nonzero; opacity: 1;" transform="translate(1.4065934065934016 1.4065934065934016) scale(2.81 2.81)" >
	<path d="M 85.163 14.12 h -8.632 V 4.334 c 0 -2.39 -1.944 -4.334 -4.335 -4.334 H 4.836 c -2.39 0 -4.334 1.944 -4.334 4.334 v 81.331 C 0.502 88.056 2.446 90 4.836 90 H 82.71 c 0.22 0 0.413 -0.085 0.578 -0.206 c 3.55 -0.81 6.21 -3.987 6.21 -7.779 V 18.454 C 89.498 16.064 87.554 14.12 85.163 14.12 z M 87.498 82.016 c 0 3.3 -2.685 5.984 -5.984 5.984 H 4.836 c -1.287 0 -2.334 -1.048 -2.334 -2.335 V 4.334 C 2.502 3.047 3.549 2 4.836 2 h 67.36 c 1.287 0 2.335 1.047 2.335 2.334 v 71.428 c 0 2.84 1.528 5.488 3.988 6.913 c 0.157 0.092 0.33 0.135 0.5 0.135 c 0.345 0 0.681 -0.179 0.866 -0.499 c 0.277 -0.478 0.114 -1.09 -0.364 -1.366 c -1.845 -1.068 -2.99 -3.054 -2.99 -5.183 V 16.12 h 8.632 c 1.287 0 2.335 1.047 2.335 2.334 V 82.016 z" style="stroke: none; stroke-width: 1; stroke-dasharray: none; stroke-linecap: butt; stroke-linejoin: miter; stroke-miterlimit: 10; fill: rgb(0,0,0); fill-rule: nonzero; opacity: 1;" transform=" matrix(1 0 0 1 0 0) " stroke-linecap="round" />
	<path d="M 10.011 52.146 h 29.008 c 0.552 0 1 -0.447 1 -1 V 27.218 c 0 -0.552 -0.448 -1 -1 -1 H 10.011 c -0.552 0 -1 0.448 -1 1 v 23.928 C 9.011 51.699 9.458 52.146 10.011 52.146 z M 11.011 28.218 h 27.008 v 21.928 H 11.011 V 28.218 z" style="stroke: none; stroke-width: 1; stroke-dasharray: none; stroke-linecap: butt; stroke-linejoin: miter; stroke-miterlimit: 10; fill: rgb(0,0,0); fill-rule: nonzero; opacity: 1;" transform=" matrix(1 0 0 1 0 0) " stroke-linecap="round" />
	<path d="M 66.808 26.218 H 48.18 c -0.553 0 -1 0.448 -1 1 s 0.447 1 1 1 h 18.628 c 0.553 0 1 -0.448 1 -1 S 67.36 26.218 66.808 26.218 z" style="stroke: none; stroke-width: 1; stroke-dasharray: none; stroke-linecap: butt; stroke-linejoin: miter; stroke-miterlimit: 10; fill: rgb(0,0,0); fill-rule: nonzero; opacity: 1;" transform=" matrix(1 0 0 1 0 0) " stroke-linecap="round" />
	<path d="M 66.808 38.182 H 48.18 c -0.553 0 -1 0.448 -1 1 s 0.447 1 1 1 h 18.628 c 0.553 0 1 -0.448 1 -1 S 67.36 38.182 66.808 38.182 z" style="stroke: none; stroke-width: 1; stroke-dasharray: none; stroke-linecap: butt; stroke-linejoin: miter; stroke-miterlimit: 10; fill: rgb(0,0,0); fill-rule: nonzero; opacity: 1;" transform=" matrix(1 0 0 1 0 0) " stroke-linecap="round" />
	<path d="M 66.808 50.146 H 48.18 c -0.553 0 -1 0.447 -1 1 s 0.447 1 1 1 h 18.628 c 0.553 0 1 -0.447 1 -1 S 67.36 50.146 66.808 50.146 z" style="stroke: none; stroke-width: 1; stroke-dasharray: none; stroke-linecap: butt; stroke-linejoin: miter; stroke-miterlimit: 10; fill: rgb(0,0,0); fill-rule: nonzero; opacity: 1;" transform=" matrix(1 0 0 1 0 0) " stroke-linecap="round" />
	<path d="M 66.808 62.111 H 10.011 c -0.552 0 -1 0.447 -1 1 s 0.448 1 1 1 h 56.797 c 0.553 0 1 -0.447 1 -1 S 67.36 62.111 66.808 62.111 z" style="stroke: none; stroke-width: 1; stroke-dasharray: none; stroke-linecap: butt; stroke-linejoin: miter; stroke-miterlimit: 10; fill: rgb(0,0,0); fill-rule: nonzero; opacity: 1;" transform=" matrix(1 0 0 1 0 0) " stroke-linecap="round" />
	<path d="M 66.808 74.075 H 10.011 c -0.552 0 -1 0.447 -1 1 s 0.448 1 1 1 h 56.797 c 0.553 0 1 -0.447 1 -1 S 67.36 74.075 66.808 74.075 z" style="stroke: none; stroke-width: 1; stroke-dasharray: none; stroke-linecap: butt; stroke-linejoin: miter; stroke-miterlimit: 10; fill: rgb(0,0,0); fill-rule: nonzero; opacity: 1;" transform=" matrix(1 0 0 1 0 0) " stroke-linecap="round" />
	<path d="M 10.011 15.221 h 37.654 c 0.553 0 1 -0.448 1 -1 s -0.447 -1 -1 -1 H 10.011 c -0.552 0 -1 0.448 -1 1 S 9.458 15.221 10.011 15.221 z" style="stroke: none; stroke-width: 1; stroke-dasharray: none; stroke-linecap: butt; stroke-linejoin: miter; stroke-miterlimit: 10; fill: rgb(0,0,0); fill-rule: nonzero; opacity: 1;" transform=" matrix(1 0 0 1 0 0) " stroke-linecap="round" />
	<path d="M 66.808 13.221 h -8.939 c -0.553 0 -1 0.448 -1 1 s 0.447 1 1 1 h 8.939 c 0.553 0 1 -0.448 1 -1 S 67.36 13.221 66.808 13.221 z" style="stroke: none; stroke-width: 1; stroke-dasharray: none; stroke-linecap: butt; stroke-linejoin: miter; stroke-miterlimit: 10; fill: rgb(0,0,0); fill-rule: nonzero; opacity: 1;" transform=" matrix(1 0 0 1 0 0) " stroke-linecap="round" />
</g>
</svg>